<?xml version="1.0" encoding="UTF-8"?>
<svg id="Camada_1" data-name="Camada 1" xmlns="http://www.w3.org/2000/svg" xmlns:xlink="http://www.w3.org/1999/xlink" viewBox="0 0 1920 1080">
  <defs>
    <style>
      .cls-1 {
        fill: url(#Gradiente_sem_nome_2);
      }

      .cls-1, .cls-2, .cls-3, .cls-4, .cls-5, .cls-6 {
        stroke-width: 0px;
      }

      .cls-2 {
        fill: #251328;
      }

      .cls-3 {
        fill: #613b51;
      }

      .cls-4 {
        fill: url(#Gradiente_sem_nome);
      }

      .cls-5 {
        fill: url(#Gradiente_sem_nome_4);
      }

      .cls-6 {
        fill: url(#Gradiente_sem_nome_3);
      }
    </style>
    <linearGradient id="Gradiente_sem_nome" data-name="Gradiente sem nome" x1="1228.75" y1="-971.01" x2="1228.75" y2="-655.26" gradientTransform="translate(242.34 1199.04)" gradientUnits="userSpaceOnUse">
      <stop offset=".04" stop-color="#e68cc0"/>
      <stop offset=".24" stop-color="#ad367c"/>
      <stop offset=".9" stop-color="#611e45"/>
    </linearGradient>
    <linearGradient id="Gradiente_sem_nome_2" data-name="Gradiente sem nome 2" x1="1368.83" y1="-1084.13" x2="1368.83" y2="-611.56" gradientTransform="translate(242.34 1199.04)" gradientUnits="userSpaceOnUse">
      <stop offset=".04" stop-color="#e68cc0"/>
      <stop offset=".24" stop-color="#ad367c"/>
      <stop offset=".9" stop-color="#611e45"/>
    </linearGradient>
    <linearGradient id="Gradiente_sem_nome_3" data-name="Gradiente sem nome 3" x1="247.31" y1="-1084.13" x2="247.31" y2="-609.61" gradientTransform="translate(1594.78 1199.04) rotate(-180) scale(1 -1)" gradientUnits="userSpaceOnUse">
      <stop offset=".04" stop-color="#e68cc0"/>
      <stop offset=".24" stop-color="#ad367c"/>
      <stop offset=".9" stop-color="#611e45"/>
    </linearGradient>
    <linearGradient id="Gradiente_sem_nome_4" data-name="Gradiente sem nome 4" x1="1247.84" y1="-287.45" x2="1247.84" y2="-670.87" gradientTransform="translate(242.34 1199.04)" gradientUnits="userSpaceOnUse">
      <stop offset=".04" stop-color="#e68cc0"/>
      <stop offset=".24" stop-color="#ad367c"/>
      <stop offset=".9" stop-color="#611e45"/>
    </linearGradient>
  </defs>
  <g id="fUNDO">
    <rect class="cls-2" width="1920" height="1080"/>
  </g>
  <g id="LOGO">
    <g id="fenix_2" data-name="fenix 2">
      <path class="cls-4" d="m1575.25,292.53c-1.63-2.92-3.88-6.48-7.13-10.04-3.56-3.88-6.48-5.84-10.04-8.11s-9.4-6.16-18.15-8.11c-3.88-.97-7.13-1.29-9.72-1.29-2.6-.97-6.8-2.92-11.35-6.16-7.45-4.87-10.37-8.75-16.86-13.94-3.56-2.92-9.08-6.48-16.52-9.72-5.84-1.95-13.28-3.24-22.36-2.6-4.53.32-8.75,1.29-12.32,2.6-8.11,2.27-14.91,4.21-20.43,5.51-11.35,2.6-17.51,3.88-23.99,3.56-9.08-.64-15.88-3.24-19.76-4.87-13.28-5.51-18.15-12.32-19.44-10.37-1.95,2.92,7.13,26.58,22.68,33.71,5.51,2.6,12.96,3.56,18.47,4.53,9.72,1.29,16.52.97,17.19,3.56,0,1.29-1.63,2.6-5.51,6.48,0,0-2.6,2.92-8.75,11.03-4.53,6.16-12.32,21.71-17.19,44.07-1.29,5.84-7.79,35.66-2.92,73.58,3.24,23.67,9.4,42.14,14.59,56.39,5.51,16.2,11.35,28.84,11.35,28.84,6.8,14.91,8.11,14.27,11.99,24.63,5.19,14.27,4.87,21.07,10.37,25.6,3.88,3.24,7.45,2.92,13.94,2.6,10.04-.64,20.43.32,30.47-.64,33.39-3.56,43.75,5.84,47.65-2.6.97-2.27,2.92-8.43-20.43-57.05-14.59-30.15-17.83-33.39-24.31-50.89-6.8-18.47-12.32-33.06-11.99-53.15,0-3.56.97-33.06,17.19-55.75,10.04-13.94,21.71-19.44,35.66-25.92,10.04-4.53,16.86-6.16,18.47-6.48,11.99-2.27,22.04-.64,28.84,1.29l.32-.32-.02.03Z"/>
      <path class="cls-3" d="m1475.75,268.55c0-2.27,7.79-6.16,15.56-5.51,8.11.64,15.56,5.84,15.23,7.79-.32,2.27-9.4,1.63-15.56.97-6.48-.64-15.23-1.29-15.23-3.56v.32Z"/>
      <path class="cls-1" d="m1479.32,114.91c15.88.32,36.63,2.27,60.94,7.79,12.96,2.92,32.74,7.79,56.39,18.8,35.66,17.19,58.66,39.22,58.66,39.54h0v.64c5.51,12.32,8.75,22.68,9.08,25.92,1.95,14.27,2.92,32.42,5.51,36.3,3.24,5.51,6.16-39.22,6.16-39.22h0c1.63,1.95,4.53,6.48,7.45,10.04,7.79,9.08,10.04,13.94,12.32,19.12,10.04,21.71,13.61,35.98,19.76,99.51,0,0,0,.32.32.64,3.56.97,18.15-39.54,18.15-39.54,0,0,2.6,6.48,4.53,11.99,3.88,12.96,7.13,35.66,1.29,87.52-.32,3.56-40.51,47.65-42.14,56.07-1.29,6.8,32.74-10.37,32.74-10.37,0,0-2.27,5.84-5.19,12.32-5.19,12.96-22.68,40.19-39.87,59.31-18.8,21.07-106.64,76.17-106.64,76.17l-48.62-54.13s75.85-57.05,89.13-74.54c17.51-23.34,29.5-57.37,34.35-74.87,3.88-13.61,26.58,11.67,26.58,11.67-5.84-23.99-23.99-34.03-24.63-44.07,0-1.63-.64-21.39-5.84-38.9-5.51-18.15-15.23-32.74-27.55-53.15-64.18-103.4-142.94-144.56-142.94-144.56l.05-.02Z"/>
      <path class="cls-6" d="m1479.32,114.91c-15.88.32-36.63,2.27-60.94,7.79-12.96,2.92-32.74,7.79-56.39,18.8-35.66,17.19-58.66,39.22-58.66,39.54h0v.64c-5.51,12.32-8.75,22.68-9.08,25.92-1.95,14.27-2.92,32.42-5.51,36.3-3.24,5.51-6.16-39.22-6.16-39.22h0c-1.63,1.95-4.53,6.48-7.45,10.04-7.79,9.08-10.04,13.94-12.32,19.12-10.04,21.71-13.61,35.98-19.76,99.51,0,0,0,.32-.32.64-3.56.97-18.15-39.54-18.15-39.54,0,0-2.6,6.48-4.53,11.99-3.88,12.96-7.13,35.66-1.29,87.52.32,3.56,40.51,47.65,42.14,56.07,1.29,6.8-32.74-10.37-32.74-10.37,0,0,2.27,5.84,5.19,12.32,5.19,12.96,22.68,40.19,39.87,59.31,18.8,21.07,115.72,78.12,115.72,78.12l50.89-52.51s-86.86-60.94-100.16-78.12c-17.51-23.34-29.5-57.37-34.35-74.87-3.88-13.61-26.58,11.67-26.58,11.67,5.84-23.99,23.99-34.03,24.63-44.07,0-1.63.64-21.39,5.84-38.9,5.51-18.15,15.23-32.74,27.55-53.15,63.86-103.4,142.62-144.56,142.62-144.56l-.05-.02Z"/>
      <path class="cls-5" d="m1572.67,817.95s34.68-85.57,28.2-63.21l-24.31-75.85s-7.45-18.15-10.37-24.96c-1.29-2.6-3.88-8.75-7.45-15.56,0-9.08,5.84-20.43,5.84-20.43l25.92,21.07,1.29,1.29s9.72,19.44,14.59,29.82l56.07,44.41,13.94-43.11c-15.23-15.88-31.11-32.08-47.31-48.3-20.43-20.43-40.51-40.19-60.61-58.99-.64-.64-15.23-18.8-31.44-28.2-14.27-8.11-27.23-7.79-53.81-7.79-23.99,0-35.98,4.53-41.5,6.48-14.59,5.84-20.75,12.96-23.02,15.88-4.21,5.19-6.48,10.37-7.45,13.94-32.74,29.5-107.28,106.96-107.28,106.96l13.94,43.11s13.28-10.04,19.44-15.23l6.8-7.45,1.29-1.95,3.88-5.84,5.84-8.75s15.56-18.47,17.51-20.1c6.16-7.79,12.64-15.88,18.8-23.67,4.53-2.92,19.44-14.27,19.44-14.27,0,0-4.21,20.43-5.19,28.2-11.03,19.44-15.88,36.95-15.88,36.95l-24.31,75.85,33.06,63.53s15.56-39.87,24.31-74.87c5.84-23.34,10.04-43.75,12.32-60.61,3.88-7.45,11.35-23.99,16.52-23.67l.97.32s6.16,22.68,5.84,26.91c13.94,73.9,41.82,221.69,41.82,221.69h0s23.02-177.62,13.61-242.44c.64-3.24,4.53-6.8,4.53-6.8"/>
    </g>
  </g>
</svg>