<?xml version="1.0" encoding="UTF-8"?>
<svg xmlns="http://www.w3.org/2000/svg" xmlns:xlink="http://www.w3.org/1999/xlink" viewBox="0 0 1920 1080">
  <defs>
    <style>
      .cls-1 {
        fill: url(#Gradiente_sem_nome_5);
      }

      .cls-2 {
        fill: #ddab2f;
      }

      .cls-3 {
        fill: #251328;
      }

      .cls-4 {
        fill: #613b51;
      }

      .cls-5 {
        fill: #947999;
      }

      .cls-6 {
        fill: url(#Gradiente_sem_nome_5-4);
      }

      .cls-7 {
        fill: url(#Gradiente_sem_nome_5-3);
      }

      .cls-8 {
        fill: url(#Gradiente_sem_nome_5-2);
      }
    </style>
    <linearGradient id="Gradiente_sem_nome_5" data-name="Gradiente sem nome 5" x1="712.81" y1="2031.94" x2="712.81" y2="1845.81" gradientTransform="translate(242.34 2279.04) scale(1 -1)" gradientUnits="userSpaceOnUse">
      <stop offset=".04" stop-color="#e68cc0"/>
      <stop offset=".24" stop-color="#ad367c"/>
      <stop offset=".9" stop-color="#611e45"/>
    </linearGradient>
    <linearGradient id="Gradiente_sem_nome_5-2" data-name="Gradiente sem nome 5" x1="795.4" y1="2098.62" x2="795.4" y2="1820.06" xlink:href="#Gradiente_sem_nome_5"/>
    <linearGradient id="Gradiente_sem_nome_5-3" data-name="Gradiente sem nome 5" x1="712.52" y1="2098.62" x2="712.52" y2="1818.91" gradientTransform="translate(1594.78 2279.04) rotate(-180)" xlink:href="#Gradiente_sem_nome_5"/>
    <linearGradient id="Gradiente_sem_nome_5-4" data-name="Gradiente sem nome 5" x1="724.06" y1="1629" x2="724.06" y2="1855.02" xlink:href="#Gradiente_sem_nome_5"/>
  </defs>
  <g id="fUNDO">
    <rect class="cls-3" width="1920" height="1080"/>
  </g>
  <g id="TEXTO">
    <g>
      <path class="cls-2" d="M762.76,668.57v21.31h-54.87v33.75h42.05v20.93h-42.05v55.63h-26.4v-131.62h81.27Z"/>
      <path class="cls-2" d="M821.97,689.87v33h44.31v20.93h-44.31v34.88h49.97v21.5h-76.37v-131.81h76.37v21.5h-49.97ZM832.91,645.18l-28.1,15.84v-19.23l28.1-15.27,27.91,15.27v19.23l-27.91-15.84Z"/>
      <path class="cls-2" d="M1022.61,800.19h-26.4l-59.78-90.33v90.33h-26.4v-131.81h26.4l59.78,90.51v-90.51h26.4v131.81Z"/>
      <path class="cls-2" d="M1089.17,668.57v131.62h-26.4v-131.62h26.4Z"/>
      <path class="cls-2" d="M1208.16,800.19l-28.47-44.31-25.83,44.31h-29.79l41.49-66.38-42.05-65.25h30.36l28.47,44.12,25.65-44.12h29.79l-41.3,66.19,42.05,65.43h-30.36Z"/>
    </g>
    <g>
      <path class="cls-5" d="M712.36,834.93v3.02h-12.35v9.58h10.03v3.02h-10.03v12.8h-3.71v-28.42h16.06Z"/>
      <path class="cls-5" d="M723.96,862.29c-1.7-.95-3.03-2.3-4-4.06-.97-1.75-1.45-3.79-1.45-6.1s.5-4.3,1.49-6.05c.99-1.75,2.34-3.1,4.06-4.04,1.71-.94,3.63-1.41,5.75-1.41s4.04.47,5.75,1.41c1.71.94,3.06,2.28,4.06,4.02.99,1.74,1.49,3.76,1.49,6.07s-.51,4.34-1.53,6.1c-1.02,1.75-2.4,3.11-4.14,4.06-1.74.95-3.67,1.43-5.79,1.43s-3.99-.48-5.69-1.43ZM733.4,859.51c1.17-.62,2.11-1.56,2.83-2.81.72-1.25,1.08-2.77,1.08-4.57s-.35-3.32-1.06-4.57c-.71-1.25-1.63-2.18-2.77-2.79-1.14-.61-2.38-.92-3.71-.92s-2.6.31-3.73.92c-1.13.61-2.03,1.54-2.71,2.79-.68,1.25-1.02,2.77-1.02,4.57s.33,3.36,1,4.61,1.56,2.18,2.67,2.79c1.11.61,2.34.92,3.67.92s2.58-.31,3.75-.94Z"/>
      <path class="cls-5" d="M755.56,841.66c1.21-.71,2.68-1.06,4.42-1.06v3.83h-.98c-4.16,0-6.24,2.26-6.24,6.77v12.15h-3.71v-22.34h3.71v3.63c.65-1.28,1.58-2.27,2.79-2.98Z"/>
      <path class="cls-5" d="M771.85,844.06v13.17c0,1.09.23,1.85.69,2.3.46.45,1.26.67,2.41.67h2.73v3.14h-3.34c-2.07,0-3.62-.48-4.65-1.43-1.03-.95-1.55-2.51-1.55-4.69v-13.17h-2.89v-3.06h2.89v-5.63h3.71v5.63h5.83v3.06h-5.83Z"/>
      <path class="cls-5" d="M785.22,846.08c.92-1.73,2.19-3.06,3.81-4.02,1.62-.95,3.42-1.43,5.4-1.43s3.66.42,5.1,1.26c1.44.84,2.51,1.9,3.22,3.18v-4.08h3.75v22.34h-3.75v-4.16c-.73,1.3-1.83,2.38-3.28,3.24-1.45.86-3.15,1.28-5.08,1.28s-3.78-.49-5.38-1.47c-1.6-.98-2.87-2.35-3.79-4.12-.92-1.77-1.39-3.78-1.39-6.03s.46-4.29,1.39-6.01ZM801.73,847.73c-.68-1.25-1.6-2.21-2.75-2.87s-2.43-1-3.81-1-2.65.33-3.79.98-2.05,1.6-2.73,2.85c-.68,1.25-1.02,2.72-1.02,4.4s.34,3.2,1.02,4.46c.68,1.26,1.59,2.23,2.73,2.89s2.41,1,3.79,1,2.66-.33,3.81-1,2.07-1.63,2.75-2.89c.68-1.26,1.02-2.74,1.02-4.42s-.34-3.15-1.02-4.4Z"/>
      <path class="cls-5" d="M819.55,833.18v30.17h-3.71v-30.17h3.71Z"/>
      <path class="cls-5" d="M849.19,853.56h-17.86c.14,2.2.89,3.92,2.26,5.16,1.37,1.24,3.04,1.85,4.99,1.85,1.6,0,2.94-.37,4.02-1.12,1.07-.75,1.83-1.75,2.26-3h4c-.6,2.15-1.79,3.89-3.59,5.24-1.79,1.35-4.02,2.02-6.69,2.02-2.12,0-4.02-.48-5.69-1.43-1.67-.95-2.98-2.3-3.93-4.06-.95-1.75-1.43-3.79-1.43-6.1s.46-4.33,1.39-6.07c.92-1.74,2.22-3.08,3.89-4.02,1.67-.94,3.59-1.41,5.77-1.41s4,.46,5.63,1.39,2.89,2.19,3.77,3.81c.88,1.62,1.33,3.45,1.33,5.48,0,.71-.04,1.45-.12,2.24ZM844.54,846.89c-.63-1.02-1.48-1.79-2.55-2.32-1.07-.53-2.26-.79-3.57-.79-1.88,0-3.47.6-4.79,1.79-1.32,1.2-2.07,2.85-2.26,4.97h14.11c0-1.41-.31-2.63-.94-3.65Z"/>
      <path class="cls-5" d="M857.26,846.08c.92-1.73,2.21-3.06,3.85-4.02,1.64-.95,3.53-1.43,5.65-1.43,2.75,0,5.01.67,6.79,2,1.78,1.33,2.96,3.18,3.53,5.54h-4c-.38-1.36-1.12-2.43-2.22-3.22-1.1-.79-2.47-1.18-4.1-1.18-2.12,0-3.83.73-5.14,2.18-1.3,1.46-1.96,3.51-1.96,6.18s.65,4.77,1.96,6.24c1.3,1.47,3.02,2.2,5.14,2.2,1.63,0,2.99-.38,4.08-1.14,1.09-.76,1.83-1.85,2.24-3.26h4c-.6,2.28-1.79,4.11-3.59,5.48-1.79,1.37-4.04,2.06-6.73,2.06-2.12,0-4-.48-5.65-1.43-1.65-.95-2.93-2.3-3.85-4.04-.92-1.74-1.39-3.78-1.39-6.12s.46-4.33,1.39-6.05Z"/>
      <path class="cls-5" d="M905.33,853.56h-17.86c.14,2.2.89,3.92,2.26,5.16,1.37,1.24,3.04,1.85,4.99,1.85,1.6,0,2.94-.37,4.02-1.12,1.07-.75,1.83-1.75,2.26-3h4c-.6,2.15-1.79,3.89-3.59,5.24-1.79,1.35-4.02,2.02-6.69,2.02-2.12,0-4.02-.48-5.69-1.43-1.67-.95-2.98-2.3-3.93-4.06-.95-1.75-1.43-3.79-1.43-6.1s.46-4.33,1.39-6.07c.92-1.74,2.22-3.08,3.89-4.02,1.67-.94,3.59-1.41,5.77-1.41s4,.46,5.63,1.39,2.89,2.19,3.77,3.81c.88,1.62,1.33,3.45,1.33,5.48,0,.71-.04,1.45-.12,2.24ZM900.68,846.89c-.63-1.02-1.48-1.79-2.55-2.32-1.07-.53-2.26-.79-3.57-.79-1.88,0-3.47.6-4.79,1.79-1.32,1.2-2.07,2.85-2.26,4.97h14.11c0-1.41-.31-2.63-.94-3.65Z"/>
      <path class="cls-5" d="M930.89,843.06c1.69,1.64,2.53,4.02,2.53,7.11v13.17h-3.67v-12.64c0-2.23-.56-3.93-1.67-5.12-1.11-1.18-2.64-1.77-4.57-1.77s-3.51.61-4.67,1.83c-1.16,1.22-1.73,3-1.73,5.34v12.35h-3.71v-22.34h3.71v3.18c.73-1.14,1.73-2.02,3-2.65,1.26-.62,2.66-.94,4.18-.94,2.72,0,4.92.82,6.6,2.47Z"/>
      <path class="cls-5" d="M942.55,846.08c.92-1.73,2.19-3.06,3.81-4.02,1.62-.95,3.43-1.43,5.44-1.43,1.74,0,3.36.4,4.85,1.2,1.49.8,2.64,1.85,3.42,3.16v-11.82h3.75v30.17h-3.75v-4.2c-.73,1.33-1.82,2.43-3.26,3.28-1.44.86-3.13,1.28-5.06,1.28s-3.79-.49-5.4-1.47-2.89-2.35-3.81-4.12c-.92-1.77-1.39-3.78-1.39-6.03s.46-4.29,1.39-6.01ZM959.06,847.73c-.68-1.25-1.6-2.21-2.75-2.87s-2.43-1-3.81-1-2.65.33-3.79.98-2.05,1.6-2.73,2.85c-.68,1.25-1.02,2.72-1.02,4.4s.34,3.2,1.02,4.46c.68,1.26,1.59,2.23,2.73,2.89s2.41,1,3.79,1,2.66-.33,3.81-1,2.07-1.63,2.75-2.89c.68-1.26,1.02-2.74,1.02-4.42s-.34-3.15-1.02-4.4Z"/>
      <path class="cls-5" d="M977.23,862.29c-1.7-.95-3.03-2.3-4-4.06-.97-1.75-1.45-3.79-1.45-6.1s.5-4.3,1.49-6.05c.99-1.75,2.34-3.1,4.06-4.04,1.71-.94,3.63-1.41,5.75-1.41s4.04.47,5.75,1.41c1.71.94,3.07,2.28,4.06,4.02s1.49,3.76,1.49,6.07-.51,4.34-1.53,6.1c-1.02,1.75-2.4,3.11-4.14,4.06s-3.67,1.43-5.79,1.43-3.99-.48-5.69-1.43ZM986.66,859.51c1.17-.62,2.11-1.56,2.83-2.81.72-1.25,1.08-2.77,1.08-4.57s-.35-3.32-1.06-4.57c-.71-1.25-1.63-2.18-2.77-2.79-1.14-.61-2.38-.92-3.71-.92s-2.6.31-3.73.92c-1.13.61-2.03,1.54-2.71,2.79-.68,1.25-1.02,2.77-1.02,4.57s.33,3.36,1,4.61,1.56,2.18,2.67,2.79c1.11.61,2.34.92,3.67.92s2.58-.31,3.75-.94Z"/>
      <path class="cls-5" d="M1047.78,841.68c1.36.72,2.43,1.8,3.22,3.24s1.18,3.19,1.18,5.26v13.17h-3.67v-12.64c0-2.23-.55-3.93-1.65-5.12-1.1-1.18-2.59-1.77-4.46-1.77s-3.46.62-4.61,1.86c-1.14,1.24-1.71,3.02-1.71,5.36v12.31h-3.67v-12.64c0-2.23-.55-3.93-1.65-5.12-1.1-1.18-2.59-1.77-4.46-1.77s-3.47.62-4.61,1.86c-1.14,1.24-1.71,3.02-1.71,5.36v12.31h-3.71v-22.34h3.71v3.22c.73-1.17,1.72-2.07,2.96-2.69,1.24-.62,2.6-.94,4.1-.94,1.88,0,3.53.42,4.97,1.26,1.44.84,2.51,2.08,3.22,3.71.62-1.58,1.66-2.8,3.1-3.67,1.44-.87,3.04-1.3,4.81-1.3s3.29.36,4.65,1.08Z"/>
      <path class="cls-5" d="M1081.13,841v22.34h-3.71v-3.3c-.71,1.14-1.69,2.03-2.96,2.67-1.26.64-2.66.96-4.18.96-1.74,0-3.3-.36-4.69-1.08-1.39-.72-2.48-1.8-3.28-3.24s-1.2-3.19-1.2-5.26v-13.09h3.67v12.6c0,2.2.56,3.89,1.67,5.08,1.11,1.18,2.64,1.77,4.57,1.77s3.55-.61,4.69-1.83c1.14-1.22,1.71-3,1.71-5.34v-12.27h3.71Z"/>
      <path class="cls-5" d="M1094.17,833.18v30.17h-3.71v-30.17h3.71Z"/>
      <path class="cls-5" d="M1119.21,841.68c1.36.72,2.43,1.8,3.2,3.24.78,1.44,1.16,3.19,1.16,5.26v13.17h-3.67v-12.64c0-2.23-.56-3.93-1.67-5.12-1.11-1.18-2.64-1.77-4.57-1.77s-3.51.61-4.67,1.83c-1.16,1.22-1.73,3-1.73,5.34v12.35h-3.71v-30.17h3.71v11.01c.73-1.14,1.75-2.02,3.04-2.65s2.74-.94,4.34-.94c1.69,0,3.21.36,4.57,1.08Z"/>
      <path class="cls-5" d="M1152.96,853.56h-17.86c.14,2.2.89,3.92,2.26,5.16,1.37,1.24,3.04,1.85,4.99,1.85,1.6,0,2.94-.37,4.02-1.12,1.07-.75,1.83-1.75,2.26-3h4c-.6,2.15-1.79,3.89-3.59,5.24s-4.02,2.02-6.69,2.02c-2.12,0-4.02-.48-5.69-1.43s-2.98-2.3-3.93-4.06c-.95-1.75-1.43-3.79-1.43-6.1s.46-4.33,1.39-6.07c.92-1.74,2.22-3.08,3.89-4.02,1.67-.94,3.59-1.41,5.77-1.41s4,.46,5.63,1.39,2.89,2.19,3.77,3.81c.88,1.62,1.33,3.45,1.33,5.48,0,.71-.04,1.45-.12,2.24ZM1148.31,846.89c-.62-1.02-1.47-1.79-2.55-2.32-1.07-.53-2.26-.79-3.57-.79-1.88,0-3.47.6-4.79,1.79-1.32,1.2-2.07,2.85-2.26,4.97h14.11c0-1.41-.31-2.63-.94-3.65Z"/>
      <path class="cls-5" d="M1167.54,841.66c1.21-.71,2.68-1.06,4.42-1.06v3.83h-.98c-4.16,0-6.24,2.26-6.24,6.77v12.15h-3.71v-22.34h3.71v3.63c.65-1.28,1.58-2.27,2.79-2.98Z"/>
      <path class="cls-5" d="M1199.56,853.56h-17.86c.14,2.2.89,3.92,2.26,5.16,1.37,1.24,3.04,1.85,4.99,1.85,1.6,0,2.94-.37,4.02-1.12,1.07-.75,1.83-1.75,2.26-3h4c-.6,2.15-1.79,3.89-3.59,5.24s-4.02,2.02-6.69,2.02c-2.12,0-4.02-.48-5.69-1.43s-2.98-2.3-3.93-4.06c-.95-1.75-1.43-3.79-1.43-6.1s.46-4.33,1.39-6.07c.92-1.74,2.22-3.08,3.89-4.02,1.67-.94,3.59-1.41,5.77-1.41s4,.46,5.63,1.39,2.89,2.19,3.77,3.81c.88,1.62,1.33,3.45,1.33,5.48,0,.71-.04,1.45-.12,2.24ZM1194.91,846.89c-.62-1.02-1.47-1.79-2.55-2.32-1.07-.53-2.26-.79-3.57-.79-1.88,0-3.47.6-4.79,1.79-1.32,1.2-2.07,2.85-2.26,4.97h14.11c0-1.41-.31-2.63-.94-3.65Z"/>
      <path class="cls-5" d="M1210.94,862.84c-1.36-.58-2.43-1.4-3.22-2.45-.79-1.05-1.22-2.25-1.3-3.61h3.83c.11,1.12.63,2.03,1.57,2.73s2.17,1.06,3.69,1.06c1.41,0,2.53-.31,3.34-.94s1.22-1.41,1.22-2.37-.44-1.71-1.3-2.18c-.87-.48-2.22-.94-4.04-1.41-1.66-.43-3.01-.88-4.06-1.33-1.05-.45-1.94-1.11-2.69-2-.75-.88-1.12-2.04-1.12-3.49,0-1.14.34-2.19,1.02-3.14.68-.95,1.64-1.71,2.89-2.26,1.25-.56,2.68-.84,4.28-.84,2.47,0,4.47.63,5.99,1.88,1.52,1.25,2.34,2.96,2.45,5.14h-3.71c-.08-1.17-.55-2.11-1.41-2.81-.86-.71-2-1.06-3.44-1.06-1.33,0-2.39.29-3.18.86-.79.57-1.18,1.32-1.18,2.24,0,.73.24,1.34.71,1.81.48.48,1.07.86,1.79,1.14.72.29,1.72.61,3,.96,1.6.44,2.91.86,3.91,1.29,1.01.42,1.87,1.05,2.59,1.9.72.84,1.09,1.94,1.12,3.3,0,1.22-.34,2.32-1.02,3.3-.68.98-1.64,1.75-2.87,2.3-1.24.56-2.66.84-4.26.84-1.71,0-3.25-.29-4.61-.88Z"/>
    </g>
  </g>
  <g id="LOGO">
    <g id="fenix_2" data-name="fenix 2">
      <path class="cls-1" d="M1016.55,285.12c-.96-1.72-2.29-3.82-4.2-5.92-2.1-2.29-3.82-3.44-5.92-4.78-2.1-1.34-5.54-3.63-10.7-4.78-2.29-.57-4.2-.76-5.73-.76-1.53-.57-4.01-1.72-6.69-3.63-4.39-2.87-6.11-5.16-9.94-8.22-2.1-1.72-5.35-3.82-9.74-5.73-3.44-1.15-7.83-1.91-13.18-1.53-2.67.19-5.16.76-7.26,1.53-4.78,1.34-8.79,2.48-12.04,3.25-6.69,1.53-10.32,2.29-14.14,2.1-5.35-.38-9.36-1.91-11.65-2.87-7.83-3.25-10.7-7.26-11.46-6.11-1.15,1.72,4.2,15.67,13.37,19.87,3.25,1.53,7.64,2.1,10.89,2.67,5.73.76,9.74.57,10.13,2.1,0,.76-.96,1.53-3.25,3.82,0,0-1.53,1.72-5.16,6.5-2.67,3.63-7.26,12.8-10.13,25.98-.76,3.44-4.59,21.02-1.72,43.37,1.91,13.95,5.54,24.84,8.6,33.24,3.25,9.55,6.69,17,6.69,17,4.01,8.79,4.78,8.41,7.07,14.52,3.06,8.41,2.87,12.42,6.11,15.09,2.29,1.91,4.39,1.72,8.22,1.53,5.92-.38,12.04.19,17.96-.38,19.68-2.1,25.79,3.44,28.09-1.53.57-1.34,1.72-4.97-12.04-33.63-8.6-17.77-10.51-19.68-14.33-30-4.01-10.89-7.26-19.49-7.07-31.33,0-2.1.57-19.49,10.13-32.86,5.92-8.22,12.8-11.46,21.02-15.28,5.92-2.67,9.94-3.63,10.89-3.82,7.07-1.34,12.99-.38,17,.76l.19-.19Z"/>
      <path class="cls-4" d="M957.9,270.98c0-1.34,4.59-3.63,9.17-3.25,4.78.38,9.17,3.44,8.98,4.59-.19,1.34-5.54.96-9.17.57-3.82-.38-8.98-.76-8.98-2.1v.19Z"/>
      <path class="cls-8" d="M960,180.42c9.36.19,21.59,1.34,35.92,4.59,7.64,1.72,19.3,4.59,33.24,11.08,21.02,10.13,34.58,23.12,34.58,23.31h0v.38c3.25,7.26,5.16,13.37,5.35,15.28,1.15,8.41,1.72,19.11,3.25,21.4,1.91,3.25,3.63-23.12,3.63-23.12h0c.96,1.15,2.67,3.82,4.39,5.92,4.59,5.35,5.92,8.22,7.26,11.27,5.92,12.8,8.02,21.21,11.65,58.66,0,0,0,.19.19.38,2.1.57,10.7-23.31,10.7-23.31,0,0,1.53,3.82,2.67,7.07,2.29,7.64,4.2,21.02.76,51.59-.19,2.1-23.88,28.09-24.84,33.05-.76,4.01,19.3-6.11,19.3-6.11,0,0-1.34,3.44-3.06,7.26-3.06,7.64-13.37,23.69-23.5,34.96-11.08,12.42-62.86,44.9-62.86,44.9l-28.66-31.91s44.71-33.63,52.54-43.94c10.32-13.76,17.39-33.82,20.25-44.13,2.29-8.02,15.67,6.88,15.67,6.88-3.44-14.14-14.14-20.06-14.52-25.98,0-.96-.38-12.61-3.44-22.93-3.25-10.7-8.98-19.3-16.24-31.33-37.83-60.95-84.26-85.21-84.26-85.21Z"/>
      <path class="cls-7" d="M960,180.42c-9.36.19-21.59,1.34-35.92,4.59-7.64,1.72-19.3,4.59-33.24,11.08-21.02,10.13-34.58,23.12-34.58,23.31h0v.38c-3.25,7.26-5.16,13.37-5.35,15.28-1.15,8.41-1.72,19.11-3.25,21.4-1.91,3.25-3.63-23.12-3.63-23.12h0c-.96,1.15-2.67,3.82-4.39,5.92-4.59,5.35-5.92,8.22-7.26,11.27-5.92,12.8-8.02,21.21-11.65,58.66,0,0,0,.19-.19.38-2.1.57-10.7-23.31-10.7-23.31,0,0-1.53,3.82-2.67,7.07-2.29,7.64-4.2,21.02-.76,51.59.19,2.1,23.88,28.09,24.84,33.05.76,4.01-19.3-6.11-19.3-6.11,0,0,1.34,3.44,3.06,7.26,3.06,7.64,13.37,23.69,23.5,34.96,11.08,12.42,68.21,46.05,68.21,46.05l30-30.95s-51.2-35.92-59.04-46.05c-10.32-13.76-17.39-33.82-20.25-44.13-2.29-8.02-15.67,6.88-15.67,6.88,3.44-14.14,14.14-20.06,14.52-25.98,0-.96.38-12.61,3.44-22.93,3.25-10.7,8.98-19.3,16.24-31.33,37.64-60.95,84.07-85.21,84.07-85.21Z"/>
      <path class="cls-6" d="M1015.03,594.83s20.44-50.44,16.62-37.26l-14.33-44.71s-4.39-10.7-6.11-14.71c-.76-1.53-2.29-5.16-4.39-9.17,0-5.35,3.44-12.04,3.44-12.04l15.28,12.42.76.76s5.73,11.46,8.6,17.58l33.05,26.18,8.22-25.41c-8.98-9.36-18.34-18.91-27.89-28.47-12.04-12.04-23.88-23.69-35.73-34.77-.38-.38-8.98-11.08-18.53-16.62-8.41-4.78-16.05-4.59-31.72-4.59-14.14,0-21.21,2.67-24.46,3.82-8.6,3.44-12.23,7.64-13.57,9.36-2.48,3.06-3.82,6.11-4.39,8.22-19.3,17.39-63.24,63.05-63.24,63.05l8.22,25.41s7.83-5.92,11.46-8.98l4.01-4.39.76-1.15,2.29-3.44,3.44-5.16s9.17-10.89,10.32-11.85c3.63-4.59,7.45-9.36,11.08-13.95,2.67-1.72,11.46-8.41,11.46-8.41,0,0-2.48,12.04-3.06,16.62-6.5,11.46-9.36,21.78-9.36,21.78l-14.33,44.71,19.49,37.45s9.17-23.5,14.33-44.13c3.44-13.76,5.92-25.79,7.26-35.73,2.29-4.39,6.69-14.14,9.74-13.95l.57.19s3.63,13.37,3.44,15.86c8.22,43.56,24.65,130.68,24.65,130.68h0s13.57-104.7,8.02-142.91c.38-1.91,2.67-4.01,2.67-4.01"/>
    </g>
  </g>
</svg>