<?xml version="1.0" encoding="UTF-8"?>
<svg id="LOGO" xmlns="http://www.w3.org/2000/svg" xmlns:xlink="http://www.w3.org/1999/xlink" viewBox="0 0 1920 1080">
  <defs>
    <style>
      .cls-1 {
        fill: url(#Gradiente_sem_nome_5);
      }

      .cls-2 {
        fill: #613b51;
      }

      .cls-3 {
        fill: url(#Gradiente_sem_nome_5-4);
      }

      .cls-4 {
        fill: url(#Gradiente_sem_nome_5-3);
      }

      .cls-5 {
        fill: url(#Gradiente_sem_nome_5-2);
      }
    </style>
    <linearGradient id="Gradiente_sem_nome_5" data-name="Gradiente sem nome 5" x1="760.63" y1="1992.82" x2="760.63" y2="1684.59" gradientTransform="translate(242.34 2279.04) scale(1 -1)" gradientUnits="userSpaceOnUse">
      <stop offset=".04" stop-color="#e68cc0"/>
      <stop offset=".24" stop-color="#ad367c"/>
      <stop offset=".9" stop-color="#611e45"/>
    </linearGradient>
    <linearGradient id="Gradiente_sem_nome_5-2" data-name="Gradiente sem nome 5" x1="897.4" y1="2103.23" x2="897.4" y2="1641.95" xlink:href="#Gradiente_sem_nome_5"/>
    <linearGradient id="Gradiente_sem_nome_5-3" data-name="Gradiente sem nome 5" x1="-3167.48" y1="2103.23" x2="-3167.48" y2="1640.05" gradientTransform="translate(-2285.22 2279.04) rotate(-180)" xlink:href="#Gradiente_sem_nome_5"/>
    <linearGradient id="Gradiente_sem_nome_5-4" data-name="Gradiente sem nome 5" x1="779.26" y1="1325.57" x2="779.26" y2="1699.85" xlink:href="#Gradiente_sem_nome_5"/>
  </defs>
  <g id="fenix_2" data-name="fenix 2">
    <path class="cls-1" d="M1104.65,349.18c-1.58-2.85-3.8-6.33-6.96-9.81-3.48-3.8-6.33-5.69-9.81-7.91-3.48-2.21-9.17-6.01-17.72-7.91-3.8-.95-6.96-1.27-9.49-1.27-2.53-.95-6.64-2.85-11.07-6.01-7.28-4.75-10.12-8.54-16.45-13.6-3.48-2.85-8.86-6.33-16.14-9.49-5.69-1.9-12.97-3.16-21.83-2.53-4.43.32-8.54,1.27-12.02,2.53-7.91,2.21-14.55,4.11-19.93,5.38-11.07,2.53-17.08,3.8-23.41,3.48-8.86-.63-15.5-3.16-19.3-4.75-12.97-5.38-17.72-12.02-18.98-10.12-1.9,2.85,6.96,25.94,22.15,32.9,5.38,2.53,12.66,3.48,18.03,4.43,9.49,1.27,16.14.95,16.77,3.48,0,1.27-1.58,2.53-5.38,6.33,0,0-2.53,2.85-8.54,10.76-4.43,6.01-12.02,21.2-16.77,43.03-1.27,5.69-7.59,34.8-2.85,71.82,3.16,23.1,9.17,41.13,14.24,55.05,5.38,15.82,11.07,28.16,11.07,28.16,6.64,14.55,7.91,13.92,11.71,24.04,5.06,13.92,4.75,20.56,10.12,24.99,3.8,3.16,7.28,2.85,13.6,2.53,9.81-.63,19.93.32,29.74-.63,32.59-3.48,42.71,5.69,46.51-2.53.95-2.21,2.85-8.23-19.93-55.68-14.24-29.42-17.4-32.59-23.73-49.67-6.64-18.03-12.02-32.27-11.71-51.89,0-3.48.95-32.27,16.77-54.42,9.81-13.6,21.2-18.98,34.8-25.31,9.81-4.43,16.45-6.01,18.03-6.33,11.71-2.21,21.51-.63,28.16,1.27l.32-.32Z"/>
    <path class="cls-2" d="M1007.52,325.77c0-2.21,7.59-6.01,15.19-5.38,7.91.63,15.19,5.69,14.87,7.59-.32,2.21-9.17,1.58-15.19.95-6.33-.63-14.87-1.27-14.87-3.48v.32Z"/>
    <path class="cls-5" d="M1011,175.81c15.5.32,35.75,2.21,59.48,7.59,12.66,2.85,31.95,7.59,55.05,18.35,34.8,16.77,57.26,38.28,57.26,38.6h0v.63c5.38,12.02,8.54,22.15,8.86,25.31,1.9,13.92,2.85,31.64,5.38,35.43,3.16,5.38,6.01-38.28,6.01-38.28h0c1.58,1.9,4.43,6.33,7.28,9.81,7.59,8.86,9.81,13.6,12.02,18.67,9.81,21.2,13.29,35.12,19.3,97.13,0,0,0,.32.32.63,3.48.95,17.72-38.6,17.72-38.6,0,0,2.53,6.33,4.43,11.71,3.8,12.66,6.96,34.8,1.27,85.42-.32,3.48-39.55,46.51-41.13,54.73-1.27,6.64,31.95-10.12,31.95-10.12,0,0-2.21,5.69-5.06,12.02-5.06,12.66-22.15,39.23-38.91,57.9-18.35,20.56-104.09,74.35-104.09,74.35l-47.46-52.84s74.03-55.68,87-72.77c17.08-22.78,28.79-56,33.54-73.08,3.8-13.29,25.94,11.39,25.94,11.39-5.69-23.41-23.41-33.22-24.04-43.03,0-1.58-.63-20.88-5.69-37.97-5.38-17.72-14.87-31.95-26.89-51.89-62.64-100.92-139.52-141.1-139.52-141.1Z"/>
    <path class="cls-4" d="M1011,175.81c-15.5.32-35.75,2.21-59.48,7.59-12.66,2.85-31.95,7.59-55.05,18.35-34.8,16.77-57.26,38.28-57.26,38.6h0v.63c-5.38,12.02-8.54,22.15-8.86,25.31-1.9,13.92-2.85,31.64-5.38,35.43-3.16,5.38-6.01-38.28-6.01-38.28h0c-1.58,1.9-4.43,6.33-7.28,9.81-7.59,8.86-9.81,13.6-12.02,18.67-9.81,21.2-13.29,35.12-19.3,97.13,0,0,0,.32-.32.63-3.48.95-17.72-38.6-17.72-38.6,0,0-2.53,6.33-4.43,11.71-3.8,12.66-6.96,34.8-1.27,85.42.32,3.48,39.55,46.51,41.13,54.73,1.27,6.64-31.95-10.12-31.95-10.12,0,0,2.21,5.69,5.06,12.02,5.06,12.66,22.15,39.23,38.91,57.9,18.35,20.56,112.95,76.25,112.95,76.25l49.67-51.25s-84.79-59.48-97.76-76.25c-17.08-22.78-28.79-56-33.54-73.08-3.8-13.29-25.94,11.39-25.94,11.39,5.69-23.41,23.41-33.22,24.04-43.03,0-1.58.63-20.88,5.69-37.97,5.38-17.72,14.87-31.95,26.89-51.89,62.33-100.92,139.21-141.1,139.21-141.1Z"/>
    <path class="cls-3" d="M1102.12,862.03s33.85-83.52,27.52-61.69l-23.73-74.03s-7.28-17.72-10.12-24.36c-1.27-2.53-3.8-8.54-7.28-15.19,0-8.86,5.69-19.93,5.69-19.93l25.31,20.56,1.27,1.27s9.49,18.98,14.24,29.11l54.73,43.34,13.6-42.08c-14.87-15.5-30.37-31.32-46.19-47.14-19.93-19.93-39.55-39.23-59.16-57.58-.63-.63-14.87-18.35-30.69-27.52-13.92-7.91-26.58-7.59-52.52-7.59-23.41,0-35.12,4.43-40.5,6.33-14.24,5.69-20.25,12.66-22.46,15.5-4.11,5.06-6.33,10.12-7.28,13.6-31.95,28.79-104.72,104.4-104.72,104.4l13.6,42.08s12.97-9.81,18.98-14.87l6.64-7.28,1.27-1.9,3.8-5.69,5.69-8.54s15.19-18.03,17.08-19.62c6.01-7.59,12.34-15.5,18.35-23.1,4.43-2.85,18.98-13.92,18.98-13.92,0,0-4.11,19.93-5.06,27.52-10.76,18.98-15.5,36.07-15.5,36.07l-23.73,74.03,32.27,62.01s15.19-38.91,23.73-73.08c5.69-22.78,9.81-42.71,12.02-59.16,3.8-7.28,11.07-23.41,16.14-23.1l.95.32s6.01,22.15,5.69,26.26c13.6,72.13,40.81,216.4,40.81,216.4h0s22.46-173.38,13.29-236.65c.63-3.16,4.43-6.64,4.43-6.64"/>
  </g>
</svg>