<?xml version="1.0" encoding="UTF-8"?>
<svg id="Camada_1" data-name="Camada 1" xmlns="http://www.w3.org/2000/svg" viewBox="0 0 830.36 604.39">
  <defs>
    <style>
      .cls-1 {
        fill: #cacaca;
      }

      .cls-2 {
        fill: #2f2e41;
      }

      .cls-3 {
        fill: #ffb6b6;
      }

      .cls-4 {
        fill: #3f3d56;
      }

      .cls-5 {
        fill: #f2f2f2;
      }

      .cls-6 {
        fill: #ffb8b8;
      }

      .cls-7 {
        fill: #59415c;
      }

      .cls-8 {
        opacity: .38;
      }

      .cls-9 {
        fill: #a0616a;
      }

      .cls-10 {
        fill: #ccc;
      }

      .cls-11 {
        fill: #e6e6e6;
      }
    </style>
  </defs>
  <path class="cls-5" d="M619.68,393.55c1.32.06,2.44-.96,2.5-2.28.03-.7-.25-1.39-.76-1.86l-.16-.65.07-.16c1.38-3.26,5.15-4.79,8.41-3.41,1.55.66,2.78,1.9,3.43,3.45,1.94,4.66,4.4,9.33,5.01,14.26.27,2.18.15,4.39-.33,6.53,4.55-9.92,6.91-20.7,6.92-31.61,0-2.74-.15-5.47-.46-8.19-.25-2.23-.6-4.45-1.05-6.64-2.44-11.93-7.67-23.11-15.27-32.63-3.68-2.01-6.65-5.09-8.52-8.84-.68-1.35-1.16-2.79-1.42-4.27.41.05.84.09,1.25.12.13,0,.27.01.39.02h.05c1.31.06,2.41-.95,2.47-2.26.03-.58-.16-1.15-.53-1.6-.18-.22-.36-.44-.54-.66-.27-.34-.55-.67-.82-1.01-.03-.03-.06-.07-.09-.1-.31-.39-.63-.77-.94-1.16.57-.89,1.34-1.63,2.24-2.17,3.13-1.84,7.46-.56,9.72,2.27,2.15,3,2.85,6.79,1.91,10.36-.78,3.01-2.06,5.88-3.79,8.46.17.22.35.43.52.65,3.11,4,5.82,8.29,8.09,12.81-.55-5.07.11-10.2,1.92-14.96,1.84-4.44,5.29-8.18,8.33-12.02,2.24-2.88,6.4-3.4,9.28-1.15,1.38,1.08,2.28,2.66,2.5,4.4l.02.17c-.45.25-.89.52-1.33.81-1.49.99-1.89,3.01-.89,4.5.5.76,1.3,1.26,2.2,1.4h.07c-.16,1.64-.44,3.25-.85,4.83-2.37,8.94-8.36,16.48-16.53,20.81-.27.14-.52.27-.79.4,2.28,6.46,3.71,13.2,4.26,20.03.31,4.03.29,8.08-.05,12.11l.02-.14c.87-4.48,3.26-8.52,6.77-11.44,5.21-4.28,12.56-5.85,18.18-9.29,1.73-1.11,4.03-.61,5.14,1.12.48.74.67,1.63.56,2.5l-.02.15c-.84.34-1.65.73-2.44,1.18-.45.25-.89.52-1.33.81-1.49.99-1.89,3.01-.89,4.5.5.76,1.3,1.26,2.2,1.4h.07s.09.02.14.03c-1.43,3.42-3.44,6.56-5.94,9.3-6.24,6.69-14.95,10.52-24.1,10.57h0c-1.23,5.34-3.01,10.53-5.31,15.5h-18.97c-.07-.21-.13-.43-.19-.64,1.76.11,3.52,0,5.25-.31-1.41-1.73-2.82-3.47-4.22-5.2-.03-.03-.06-.07-.09-.1-.71-.88-1.43-1.76-2.15-2.65h0c-.04-2.71.27-5.41.93-8.04h0Z"/>
  <path class="cls-2" d="M562.29,219.5c0,10.44,5.22,21.07,15.67,21.07s24.85-7.56,21.61-23.77c-2.05-10.24-7.93-16.21-18.37-16.21-10.44,0-18.91,8.47-18.91,18.91h0Z"/>
  <path class="cls-9" d="M606.1,368.71c-2.15-2.38-1.96-6.06.43-8.21.25-.23.53-.44.82-.62l-4.57-20.15,10.05,3.78,2.8,18.55c1.52,2.85.45,6.39-2.4,7.91-2.38,1.27-5.33.75-7.12-1.27h0Z"/>
  <path class="cls-11" d="M584.77,297.29l7.01.71s-1.83,10.39,1.03,12.73,1.71,2.33,1.7,4.06c.18,2.52,1.42,4.84,3.41,6.39,2.3,1.76,7.07,33.04,7.07,33.04l10.41.1c-.31-2.69-.28-5.41.08-8.09.62-4.04,3.74-14.22,2.6-15.97s-.54-4.96-.51-8.42-4.93.36-4.87-5.42c.06-5.78-6.31-42.06-5.68-47.26s-5.69-9.88-5.69-9.88l-5.78-.06-10.77,38.06h0Z"/>
  <path class="cls-9" d="M510.31,248.5c-.66,2.97,1.21,5.91,4.18,6.57.32.07.64.11.96.13l5.63,18.75,6.52-7.8-6.34-16.61c-.07-3.06-2.61-5.48-5.67-5.41-2.56.06-4.74,1.87-5.28,4.37Z"/>
  <path class="cls-11" d="M569.71,254.61s-13.6-5.1-20.98,22.83l-9.79,10.14-8.22-14.86,1.09-3.53-6.36-14.41-10.9,6.25,2.68,9.89-.45,4.89,2.6,3.04,4.26,15.72,2.67,5.14s3.36,6.58,9.23,7.66c1.56.29,3.17.34,4.75.13,3.75-.59,7.24-2.32,9.96-4.97,7.26-6.47,14.12-13.37,20.56-20.67l-1.1-27.26Z"/>
  <polygon class="cls-9" points="587.96 301.38 588.92 305.96 589.74 322.87 556.87 318.42 554.35 298.84 557.83 293.11 587.96 301.38"/>
  <circle class="cls-9" cx="577.3" cy="224.74" r="15.56"/>
  <path class="cls-11" d="M603.36,261.12c-2.57-6.06-7.88-10.51-14.29-11.99h-.06s-3.08-4.16-3.08-4.16l-12.5,1.25-2.28,4.68-5.93,3.53h-.02s-3.1,1.86-3.1,1.86l-10.29,12.05h-.01c-3.05,2.05-5.13,5.27-5.73,8.89-.16,1.03-.21,2.08-.15,3.13.34,6.41,4.35,12.11,4.9,12.87l1.35,7.58.27,1.56,2.42.35,34.15,4.88.95.14.28.04.98-2.54v-.02l9.52-24.91,4.27-11.11c.01-2.77-.55-5.52-1.65-8.07h0Z"/>
  <path class="cls-2" d="M593.58,228.82c-.14-.02-.28-.05-.42-.07-2.43-.43-4.85-.85-7.27-1.29l-.22-5.48-2.93,4.91c-6.69,2.22-12.94.96-18.83-1.8-1.94-.92-3.82-1.96-5.64-3.11-1.27-7.72,1.93-13.81,10.13-14.59.25-.02.44-.24.66-.35h0c.38-.19.76-.36,1.15-.51,6.17-2.41,13.17-1.05,17.99,3.49,4.87,4.95,6.89,12.03,5.38,18.81Z"/>
  <path class="cls-10" d="M608.9,354.27c-.69-4.6-1.82-9.11-3.37-13.49h0c-1.3-3.71-2.92-7.3-4.85-10.72,0,0-.01,0-.01-.01h0c-2.77-5.16-6.38-9.81-10.69-13.77l-.46-.48h-.12l-32.98-.81h-.71s-.14.4-.41,1.17c-.01.05-.03.1-.05.14-.09.3-.21.66-.35,1.04-.08.26-.18.53-.27.82-.11.32-.22.64-.34,1-.91,2.73-2.25,6.69-3.89,11.59-.25.75-.5,1.52-.77,2.33-6.25,18.82-16.31,49.58-25.1,78.73h31.15c3.02-8.74,6.23-21.2,6.23-21.2,1.25-1.49,1.18-5.53,1.18-5.53l9.79-10.28,7.05,37.01h29.58l.22-41.19v-.35c.23-5.35-.05-10.7-.84-16Z"/>
  <path class="cls-2" d="M587.62,206.64h0c0,.83.1,1.64.31,2.43.03.14.07.28.12.42h0c.89,2.86,3.07,5.12,5.88,6.13.2.08.41.14.62.2.44.13.9.22,1.35.28.41.06.83.09,1.24.09.32,0,.65-.01.97-.05.76-.08,1.5-.25,2.22-.51.11-.03.22-.07.33-.12.05-.02.11-.04.16-.07,4.86-2.03,7.15-7.63,5.12-12.49-.06-.15-.13-.29-.19-.43h0c-.47-.99-1.1-1.87-1.87-2.64-1.72-1.72-2.48-6.02-5.1-6.02-.13,0-.25,0-.37.01-1.76.06-5,3.85-6.38,4.74-1.03.65-1.91,1.49-2.62,2.48-.73,1.02-1.26,2.17-1.54,3.39-.16.7-.24,1.42-.24,2.14Z"/>
  <path class="cls-2" d="M599.26,203.32c1.48,1.72,3.8,2.39,5.89,3.29,7.49,3.29,12.88,10.06,14.39,18.1.58,3.23.5,6.56,1.42,9.71.91,3.14,3.16,6.23,6.38,6.78,2.18.37,4.37-.47,6.42-1.3,1.13-.45,2.26-.91,3.39-1.37-1.18-2.96-2.35-5.91-3.53-8.87,1.89,2.79,4.08,5.36,6.54,7.66,4.05-1.63,8.1-3.26,12.15-4.89-9.97.04-8.27-9.64-10.5-19.36-1.23-5.34-11.67-8.95-13.72-14.03-3.2-7.96-12.25-11.82-20.21-8.63-3.43,1.38-6.26,3.93-7.97,7.21-2.05.82-2.11,4-.65,5.71Z"/>
  <path class="cls-10" d="M556.9,317.36c-4.66,1.21-8.43,4.63-10.1,9.14-.59,1.28-.57,2.75.04,4.01.48.9,1.56,1.31,2.52.95.96-.52,1.73-1.34,2.19-2.33.67-1.28,1.25-2.6,1.73-3.96.78-2.05,2.45-5.48.07-7.08-2-1.35-4.66-.83-6.91-.92-2.44-.1-5.15-1.03-6.01-3.56-.84-2.46,1.13-4.77,3.26-5.7,2.6-1.08,5.56-.79,7.91.75,2.29,1.58,3.92,3.95,4.59,6.64.1.44-.16.87-.6.98-.41.1-.84-.14-.96-.55-.6-2.5-2.17-4.66-4.38-5.99-2.19-1.26-4.91-1.16-6.99.27-1.09.68-1.6,2-1.24,3.24.55,1.1,1.58,1.87,2.79,2.09,2.57.62,5.26-.18,7.82.64,2.39.61,3.91,2.95,3.5,5.38-.27,1.46-.7,2.88-1.29,4.24-.5,1.4-1.09,2.76-1.75,4.09-1.02,1.92-2.85,4.01-5.27,3.44-2.76-.64-3.42-3.87-2.82-6.23,1.6-5.47,5.96-9.69,11.48-11.11.44-.1.87.17.98.6.1.41-.14.83-.55.96h0Z"/>
  <path class="cls-4" d="M678.75,412.98h-192.07c-4.53,0-8.19-3.67-8.2-8.2V143.61c0-4.53,3.67-8.19,8.2-8.2h192.07c4.53,0,8.19,3.67,8.2,8.2v261.17c0,4.53-3.67,8.19-8.2,8.2ZM486.68,137.76c-3.23,0-5.85,2.62-5.86,5.86v261.17c0,3.23,2.62,5.85,5.86,5.86h192.07c3.23,0,5.85-2.62,5.86-5.86V143.61c0-3.23-2.62-5.85-5.86-5.86h-192.07Z"/>
  <path class="cls-1" d="M709.27,39.94H164.34c-1.17-.02-2.1-.99-2.07-2.16.02-1.13.94-2.05,2.07-2.07h544.94c1.17.02,2.1.99,2.07,2.16-.02,1.13-.94,2.05-2.07,2.07Z"/>
  <path class="cls-7" d="M815.13,291.18h-62.07c-8.41,0-15.23-6.82-15.23-15.23s6.82-15.23,15.23-15.23h62.07c8.41,0,15.23,6.82,15.23,15.23s-6.82,15.23-15.23,15.23Z"/>
  <path class="cls-5" d="M370.07,354.9c-1.32.06-2.44-.96-2.5-2.28-.03-.7.25-1.39.76-1.86l.16-.65-.07-.16c-1.38-3.26-5.15-4.79-8.41-3.41-1.55.66-2.78,1.9-3.43,3.45-1.94,4.66-4.4,9.33-5.01,14.26-.27,2.18-.15,4.39.33,6.53-4.55-9.92-6.91-20.7-6.92-31.61,0-2.74.15-5.47.46-8.19.25-2.23.6-4.45,1.05-6.64,2.44-11.93,7.67-23.11,15.27-32.63,3.68-2.01,6.65-5.09,8.52-8.84.68-1.35,1.16-2.79,1.42-4.27-.41.05-.84.09-1.25.12-.13,0-.27.01-.39.02h-.05c-1.31.06-2.41-.95-2.47-2.26-.03-.58.16-1.15.53-1.6.18-.22.36-.44.54-.66.27-.34.55-.67.82-1.01.03-.03.06-.07.09-.1.31-.39.63-.77.94-1.16-.57-.89-1.34-1.63-2.24-2.17-3.13-1.84-7.46-.56-9.72,2.27-2.15,3-2.85,6.79-1.91,10.36.78,3.01,2.06,5.88,3.79,8.46-.17.22-.35.43-.52.65-3.11,4-5.82,8.29-8.09,12.81.55-5.07-.11-10.2-1.92-14.96-1.84-4.44-5.29-8.18-8.33-12.02-2.24-2.88-6.4-3.4-9.28-1.15-1.38,1.08-2.28,2.66-2.5,4.4l-.02.17c.45.25.89.52,1.33.81,1.49.99,1.89,3.01.89,4.5-.5.76-1.3,1.26-2.2,1.4h-.07c.16,1.64.44,3.25.85,4.83,2.37,8.94,8.36,16.48,16.53,20.81.27.14.52.27.79.4-2.28,6.46-3.71,13.2-4.26,20.03-.31,4.03-.29,8.08.05,12.11l-.02-.14c-.87-4.48-3.26-8.52-6.77-11.44-5.21-4.28-12.56-5.85-18.18-9.29-1.73-1.11-4.03-.61-5.14,1.12-.48.74-.67,1.63-.56,2.5l.02.15c.84.34,1.65.73,2.44,1.18.45.25.89.52,1.33.81,1.49.99,1.89,3.01.89,4.5-.5.76-1.3,1.26-2.2,1.4h-.07s-.09.02-.14.03c1.43,3.42,3.44,6.56,5.94,9.3,6.24,6.69,14.95,10.52,24.1,10.57h0c1.23,5.34,3.01,10.53,5.31,15.5h18.97c.07-.21.13-.43.19-.64-1.76.11-3.52,0-5.25-.31,1.41-1.73,2.82-3.47,4.22-5.2.03-.03.06-.07.09-.1.71-.88,1.43-1.76,2.15-2.65h0c.04-2.71-.27-5.41-.93-8.04h0Z"/>
  <g class="cls-8">
    <path class="cls-6" d="M334.04,327.34c-2.93-2.4-3.36-6.72-.96-9.65.26-.31.54-.6.85-.86l-15.5-40.53,12.39,2.62,13.16,38.99c2.28,3.05,1.66,7.37-1.39,9.65-2.55,1.91-6.08,1.82-8.53-.22Z"/>
    <path class="cls-2" d="M340.42,282.95l-13.91-57.9-5.98-16.84s-.01-.01-.01-.02c-.97-2.75-3.01-5-5.66-6.23-2.65-1.27-5.69-1.41-8.44-.4-.24.08-.47.18-.69.28-.48.22-.95.47-1.39.75-2.58,1.63-4.38,4.25-4.95,7.25l-1.05,5.53-.45,2.35,16.43,57.43v.02l5.72,20,2.65,9.23h0s3.07,10.75,3.07,10.75l.07.22,7.37-.49h.01l1.11-.08,8.43-.56,1.22-.08-3.53-31.21h0Z"/>
    <path class="cls-2" d="M283.93,186.27l30.99,62.67,19.61,66.64c-41.3,8.05-93.13,25.28-96.86.57,2.3-68.89,9.54-90.87,24.49-120.74l21.78-9.15h0Z"/>
    <path class="cls-2" d="M325.37,371.99h-25.45l-10.32-34.87-7.26,34.42c-.02.15-.04.29-.06.45h-27.12c.88-10.77,2.48-29.51,3.24-32.17,1.08-3.77,0-3.77-2.15-5.93-.48-.48-.64-2.4-.6-5.08.13-9.24,2.65-27.55,2.65-27.55l2.99-5.53,1.03-1.92,53.19-1.87h.46s.98,4.27.98,4.27l1.21,5.28,2.12,9.26,1.96,7.39.11.37v2.19c-.33.76-.49,1.59-.45,2.42,0,.75,1.69,24.1,3.48,48.85Z"/>
    <path class="cls-7" d="M280.3,195.57l3.65-8.74,11.3.2,11.79,16.67,12.37,52.03s4.44,38.01,0,40.01-58.25.94-58.25.94c2.49-20.52,4.35-41.4,6.3-53.88,6.47-41.22,9.52-32.55,12.83-47.23Z"/>
    <path class="cls-2" d="M295.26,187.03s24.35,14.08,25.3,21.42,4.14,97.27,4.14,97.27l-8.61-5.56-2.35-32.78c1.64-29.12-2.36-50.83-10.51-67.1l-7.97-13.25h0Z"/>
    <circle class="cls-6" cx="289.51" cy="166.34" r="16.59" transform="translate(40.16 388.39) rotate(-71.57)"/>
    <path class="cls-2" d="M269.06,165.35c.74,3.36,2.08,6.56,3.95,9.46.5.99,1.24,1.83,2.15,2.44.96.61,2.21.46,2.99-.37l.4-.33c-.79-.49-1.5-1.1-2.09-1.82-.6-.73-.81-1.7-.56-2.61.3-.92,1.27-1.44,2.2-1.17.97.38,1.56,1.79,2.58,1.57.82-.18.99-1.26.99-2.12-.03-4.46,2.12-10.79,3.79-10.59,1.68.09,3.37-.13,4.97-.67,1.6-.53,3.29-.75,4.98-.64.12.01.24.04.37.06.27-.85.64-1.66,1.11-2.41-.05.91,0,1.83.13,2.74,1.34.55,2.73.99,4.14,1.31,1.54.22,4.93,4.82,5.08,4.35.27-.85.64-1.66,1.11-2.41-.05.91,0,1.83.13,2.74,0,.04,0,.07.01.1.75-.99,1.2-2.21.95-1.28,2.5-5.67,1.53-9.73-2.41-14.5-.77-1.03-1.78-1.84-2.95-2.37-1.19-.52-2.57-.39-3.63.36-3.27-3-7.91-3.99-12.12-2.59-4.1,1.43-7.27,2.27-7.89,6.57-3.49-.38-6.9,1.27-8.75,4.26-1.77,2.98-2.35,6.53-1.62,9.92h0Z"/>
    <path class="cls-6" d="M222.56,323.24c-1.41-3.52.3-7.51,3.82-8.92.37-.15.76-.27,1.16-.35l5.98-42.98,9.59,8.28-7.29,40.5c.53,3.77-2.11,7.26-5.88,7.78-3.16.44-6.2-1.34-7.37-4.31h0Z"/>
    <path class="cls-2" d="M275.37,208.51l-.46-4.17c-.43-3.85-2.85-7.19-6.37-8.81-1.34-.62-2.79-.96-4.26-1h-.01c-4.44-.1-8.5,2.46-10.32,6.51l-7.31,16.34-18.45,56.63-5.96,30.8,6.44.95,9.33,1.37h.07s2.14.33,2.14.33l29.95-80.15v-.02s5.61-14.98,5.61-14.98l-.41-3.79h0Z"/>
  </g>
  <path class="cls-11" d="M387.13,373.16h-192.07c-4.53,0-8.19-3.67-8.2-8.2V103.79c0-4.53,3.67-8.19,8.2-8.2h192.07c4.53,0,8.19,3.67,8.2,8.2v261.17c0,4.53-3.67,8.19-8.2,8.2ZM195.06,97.94c-3.23,0-5.85,2.62-5.86,5.86v261.17c0,3.23,2.62,5.85,5.86,5.86h192.07c3.23,0,5.85-2.62,5.86-5.86V103.79c0-3.23-2.62-5.85-5.86-5.86h-192.07Z"/>
  <path class="cls-11" d="M77.3,291.18H15.23c-8.41,0-15.23-6.82-15.23-15.23s6.82-15.23,15.23-15.23h62.07c8.41,0,15.23,6.82,15.23,15.23s-6.82,15.23-15.23,15.23Z"/>
  <path class="cls-11" d="M107.75,350.91h-62.07c-8.41,0-15.23-6.82-15.23-15.23s6.82-15.23,15.23-15.23h62.07c8.41,0,15.23,6.82,15.23,15.23s-6.82,15.23-15.23,15.23Z"/>
  <rect class="cls-11" x="199.37" y="281.8" width="2.34" height="119.96" transform="translate(-144.1 537.36) rotate(-89.17)"/>
  <path class="cls-11" d="M265.55,348c-2.24,0-4.29-1.28-5.27-3.29h0c-1.42-2.91-.21-6.41,2.7-7.83,2.91-1.42,6.41-.21,7.83,2.7,1.42,2.91.21,6.41-2.7,7.83-.8.39-1.67.59-2.56.59ZM265.53,338.63c-1.94,0-3.51,1.58-3.51,3.52,0,.53.12,1.06.36,1.54h0c.85,1.74,2.96,2.46,4.7,1.61,1.74-.85,2.46-2.96,1.61-4.7-.59-1.2-1.81-1.97-3.15-1.97Z"/>
  <rect class="cls-11" x="173.6" y="219.72" width="2.34" height="119.96" transform="translate(-107.43 450.42) rotate(-89.17)"/>
  <path class="cls-11" d="M239.78,285.93c-2.24,0-4.29-1.27-5.27-3.29h0c-1.42-2.91-.21-6.41,2.7-7.83s6.41-.21,7.83,2.7c1.42,2.91.21,6.41-2.7,7.83-.8.39-1.67.59-2.56.59ZM236.61,281.62c.85,1.74,2.95,2.47,4.7,1.62,1.74-.85,2.47-2.95,1.62-4.7-.85-1.74-2.95-2.47-4.7-1.62-.84.41-1.48,1.13-1.78,2.01-.3.88-.24,1.85.16,2.68Z"/>
  <path class="cls-11" d="M124.14,232.62h-62.07c-8.41,0-15.23-6.82-15.23-15.23s6.82-15.23,15.23-15.23h62.07c8.41,0,15.23,6.82,15.23,15.23s-6.82,15.23-15.23,15.23Z"/>
  <rect class="cls-11" x="220.45" y="161.16" width="2.34" height="119.96" transform="translate(-2.7 439.55) rotate(-89.17)"/>
  <path class="cls-11" d="M286.63,227.37c-2.24,0-4.29-1.27-5.27-3.29h0c-1.42-2.91-.21-6.41,2.7-7.83s6.41-.21,7.83,2.7c1.42,2.91.21,6.41-2.7,7.83-.8.39-1.67.59-2.56.59ZM283.46,223.06c.85,1.74,2.95,2.47,4.7,1.62,1.74-.85,2.47-2.95,1.62-4.7-.85-1.74-2.95-2.47-4.7-1.62-.84.41-1.48,1.13-1.78,2.01-.3.88-.24,1.85.16,2.68Z"/>
  <rect class="cls-4" x="661.83" y="211.74" width="2.34" height="119.96" transform="translate(381.73 930.73) rotate(-89.17)"/>
  <path class="cls-4" d="M598.01,277.21c-3.24,0-5.87-2.61-5.88-5.85s2.61-5.87,5.85-5.88,5.87,2.61,5.88,5.85c0,2.25-1.27,4.3-3.29,5.28-.8.39-1.67.59-2.56.6ZM598,267.83c-1.94,0-3.52,1.57-3.52,3.52,0,1.94,1.57,3.52,3.52,3.52,1.94,0,3.52-1.57,3.52-3.52,0-.53-.12-1.06-.36-1.54h0c-.59-1.21-1.82-1.97-3.16-1.98h0Z"/>
  <path class="cls-7" d="M815.13,411.81h-62.07c-8.41,0-15.23-6.82-15.23-15.23s6.82-15.23,15.23-15.23h62.07c8.41,0,15.23,6.82,15.23,15.23s-6.82,15.23-15.23,15.23Z"/>
  <rect class="cls-4" x="661.83" y="332.37" width="2.34" height="119.96" transform="translate(261.12 1049.62) rotate(-89.17)"/>
  <path class="cls-4" d="M598.01,397.84c-3.23,0-5.86-2.62-5.86-5.85,0-3.23,2.62-5.86,5.85-5.86,2.24,0,4.29,1.28,5.27,3.29h0c1.42,2.91.2,6.42-2.71,7.83-.8.39-1.67.59-2.55.59ZM598,388.47c-1.94,0-3.52,1.57-3.52,3.52,0,1.94,1.57,3.52,3.52,3.52,1.94,0,3.52-1.57,3.52-3.52,0-.53-.12-1.06-.36-1.54h0c-.59-1.21-1.82-1.98-3.16-1.98Z"/>
  <path class="cls-3" d="M443.84,411.67c2.97-2.38,3.44-6.72,1.06-9.69-.23-.29-.48-.56-.76-.8l11.16-32.48-8.23-5.29-12.97,38.67c-2.33,3-1.78,7.32,1.22,9.65,2.51,1.95,6.03,1.92,8.52-.06h0Z"/>
  <path class="cls-7" d="M453.36,322.05c-1.97,8.33-4.91,15.61-4.51,19.11.39,3.49-3.87,6.84-2.51,9.59,1.35,2.76-2.81,3.06-1.68,7.5,1.13,4.46,1.86,5.41.91,6.14-.96.73-6.03,17.74-6.03,17.74l2.97,1.09,8.68,3.17,20.4-33.55-.06-41.17-5.06-.16c-1.22.46-2.56,1-3.91,1.66-4.1,1.98-8.25,4.91-9.19,8.88Z"/>
  <polygon class="cls-3" points="528.46 583.32 539.07 583.32 544.11 542.41 528.46 542.41 528.46 583.32"/>
  <path class="cls-2" d="M542.6,584.27v-7.19l-2.79.17-11.35.67-2.63.16-2.01,24.08-.11,1.29h7.53l.24-1.28,1.09-5.83,2.82,5.83.62,1.28h19.97c2.47-.02,4.47-2.02,4.48-4.49.84-3.94-15.76-12.44-17.88-14.69Z"/>
  <polygon class="cls-3" points="404.21 571.77 413.43 577.01 438.01 543.92 424.39 536.19 404.21 571.77"/>
  <path class="cls-2" d="M416.03,579.57l3.54-6.25-2.49-1.23-10.21-5.01-2.37-1.17-11.63,17.02-2.73,4,3.09,1.76,3.45,1.96,4.68-5.52-.52,7.88,16.31,9.26h0l1.05.59c2.16,1.22,4.89.46,6.11-1.69,2.67-3.01-7.57-18.59-8.29-21.61Z"/>
  <path class="cls-2" d="M475.83,382.51c-14.21,9.42-28.28,99.9-24.59,98.42l-33.5,62.43,17.12,11.58,61.91-99.06,20.58,43.82,8.5,67.26,21.32-1.52c-5.54-75.78-19.37-155.7-30.83-186.61l-40.51,3.68Z"/>
  <path class="cls-7" d="M465.04,389.23l-.15.58c15.02,8.36,56.15-1.32,56.15-1.32l-6.63-21.36,8.95-47.45c-.05-7.66-6.3-13.83-13.96-13.78-.31,0-.63.01-.94.04l-10.8-8-15.37.53-10.28,11.36-6.14,2.19-4.77,1.7c-.96.87-2.02,1.87-3.03,2.98l7.55,44.93,3.21,13.43-3.79,14.17Z"/>
  <circle class="cls-3" cx="489.99" cy="276.43" r="19.72"/>
  <path class="cls-2" d="M464.05,269.56c.06.02.11.04.17.07.11.05.23.09.35.13.75.28,1.54.46,2.33.54.34.04.68.05,1.02.05.44,0,.88-.03,1.31-.09.48-.06.96-.16,1.43-.29.22-.06.44-.13.66-.21,2.97-1.05,5.27-3.44,6.22-6.44h0c.05-.15.09-.3.13-.45.22-.83.33-1.68.33-2.54h0c0-2.11-.65-4.15-1.86-5.85-.73-1.04-1.58-1.21-1.11-2.4,1.52-3.79-4.69-6.9-8.35-5.23-.13-.01-.26-.02-.4-.02-2.47,0-3.38,3.64-4.85,5.69h.04c.99.36,1.51,1.44,1.16,2.43-.19.55-.63.98-1.19,1.17-.98.32-1.97.6-2.97.85-3.3,3.89.48,15.29,5.58,12.6Z"/>
  <path class="cls-2" d="M465.87,280c.94,4.22,3.19,8.03,6.42,10.89,3.34,2.7,19.03,9.09,20.36,3.62-.89,3.82-.35,5.28,1.07,6.65.24-.33.5-.65.77-.96.98-1.13,2.15-2.07,3.47-2.78.03,2.31-.13,4.61-.5,6.89.59.54,1.15,1.11,1.67,1.71,2.54-7.56,8.1-16.63,4.07-23.51-1.6-2.73-.27-3.11,1.15-3.42,2.47-.55,3.83-10.69,4.42-13.16.73-3.09,1.02-6.65-.9-9.19s-6.76-2.65-7.74.38l-2.04-2.77c-2.64-5.8-9.64-4.64-15.96-3.89-6.42.97-11.94,5.05-14.76,10.89-2.72,5.84-3.25,12.45-1.51,18.65h0Z"/>
  <path class="cls-7" d="M475.85,253.5c.27,7.15-3.75,13.78-10.22,16.84-1.29.58-2.41-1.32-1.11-1.91,5.79-2.67,9.39-8.57,9.12-14.93-.07-1.42,2.14-1.41,2.21,0h0Z"/>
  <path class="cls-3" d="M564.92,264.41c-3.67,1.02-5.81,4.81-4.8,8.48.1.36.23.7.38,1.04l-23.07,25.44,5.47,8.11,27.18-30.42c3.32-1.84,4.53-6.03,2.69-9.35-1.54-2.78-4.78-4.15-7.85-3.3h0Z"/>
  <path class="cls-7" d="M499.35,346.94s16.36,2.94,21.46-3.95,10.67-12.41,11.69-15.78,6.25-4.76,6.09-7.83,3.79-1.7,4.51-6.23.42-5.7,1.59-6,12.53-13.92,12.53-13.92l-9.03-8.51-31.97,22.78-16.87,39.44Z"/>
  <path class="cls-5" d="M376.31,594.87c-12.84-1.53-24.3-8.77-31.19-19.71-4.43-7.18-6.71-15.7-8.92-23.95-.64-2.4-1.31-4.88-2.01-7.27-1.63-5.35.16-11.15,4.52-14.65,4.21-3.53,10.15-4.14,14.99-1.55l.52.27.91,20.35c1.34-2.73,4.29-8.89,6.62-15.04l.2-.52.45.32c4.69,3.37,8.94,7.32,12.64,11.75,13.24,16.09,18.73,37.2,15.01,57.7l-.11.6-13.61-8.33Z"/>
  <path class="cls-10" d="M293.31,602.99c0,.77.62,1.39,1.39,1.39h339.99c.77,0,1.39-.62,1.39-1.39s-.62-1.39-1.39-1.39h-339.98c-.77,0-1.39.62-1.39,1.39h0Z"/>
  <g>
    <ellipse class="cls-4" cx="191.59" cy="10.12" rx="9.9" ry="10.12"/>
    <ellipse class="cls-4" cx="225.8" cy="10.12" rx="9.9" ry="10.12"/>
    <ellipse class="cls-4" cx="260.02" cy="10.12" rx="9.9" ry="10.12"/>
    <path class="cls-4" d="M299.03,18.13c-.3,0-.61-.12-.84-.35l-6.68-6.83c-.45-.46-.45-1.18,0-1.64l6.68-6.83c.45-.46,1.2-.47,1.66-.02.46.45.47,1.19.02,1.66l-5.88,6.01,5.88,6.01c.45.46.44,1.2-.02,1.66-.23.22-.52.33-.82.33Z"/>
    <path class="cls-4" d="M310.26,18.13c-.3,0-.59-.11-.82-.33-.46-.45-.47-1.19-.02-1.66l5.88-6.01-5.88-6.01c-.45-.46-.44-1.2.02-1.66.46-.45,1.2-.44,1.66.02l6.68,6.83c.45.46.45,1.18,0,1.64l-6.68,6.83c-.23.23-.53.35-.84.35Z"/>
    <path class="cls-4" d="M659.86,1.17h-12.43c-1.42,0-2.56,1.15-2.56,2.56v12.44c0,1.42,1.15,2.56,2.56,2.56h12.43c1.42,0,2.58-1.15,2.58-2.56V3.74c0-1.42-1.16-2.56-2.58-2.56Z"/>
    <path class="cls-4" d="M629.41,1.17h-12.43c-1.42,0-2.56,1.15-2.56,2.56v12.44c0,1.42,1.15,2.56,2.56,2.56h12.43c1.42,0,2.58-1.15,2.58-2.56V3.74c0-1.42-1.16-2.56-2.58-2.56Z"/>
    <path class="cls-4" d="M688.56,1.76h-12.43c-1.42,0-2.56,1.15-2.56,2.56v12.44c0,1.42,1.15,2.56,2.56,2.56h12.43c1.42,0,2.58-1.15,2.58-2.56V4.32c0-1.42-1.16-2.56-2.58-2.56Z"/>
    <path class="cls-4" d="M501.26,6.49h-99.33c-1.73,0-3.13,1.41-3.13,3.13s1.39,3.13,3.13,3.13h99.33c1.72,0,3.13-1.41,3.13-3.13s-1.41-3.13-3.13-3.13Z"/>
  </g>
</svg>